<?xml version="1.0" standalone="no"?>
<!DOCTYPE svg PUBLIC "-//W3C//DTD SVG 20010904//EN"
 "http://www.w3.org/TR/2001/REC-SVG-20010904/DTD/svg10.dtd">
<svg version="1.0" xmlns="http://www.w3.org/2000/svg"
 width="512.000000pt" height="512.000000pt" viewBox="0 0 512.000000 512.000000"
 preserveAspectRatio="xMidYMid meet">

<g transform="translate(0.000000,512.000000) scale(0.100000,-0.100000)"
fill="#000000" stroke="none">
<path d="M255 4946 c-41 -18 -83 -69 -90 -109 -3 -18 -4 -658 -3 -1424 3
-1388 3 -1392 24 -1419 11 -15 33 -37 48 -48 27 -20 40 -21 544 -24 345 -2
529 0 554 8 20 5 50 26 68 47 l32 36 56 -23 c171 -69 418 -216 532 -316 124
-109 199 -222 219 -330 6 -28 15 -130 21 -225 30 -488 39 -545 100 -677 48
-102 119 -176 210 -219 98 -46 160 -58 305 -58 108 0 142 4 200 23 259 86 426
314 502 688 24 120 24 529 -1 754 -15 145 -49 374 -62 427 l-6 23 500 0 c330
0 519 4 554 11 221 47 378 241 378 468 0 68 -27 177 -250 1016 -149 558 -263
965 -280 1002 -37 80 -108 155 -179 190 l-56 28 -1366 3 -1367 2 -6 35 c-8 43
-50 94 -93 111 -47 20 -1043 20 -1088 0z m865 -1506 l0 -1200 -320 0 -320 0 0
1200 0 1200 320 0 320 0 0 -1200z m2994 1018 c22 -34 506 -1856 506 -1904 0
-46 -28 -94 -73 -128 -28 -21 -39 -21 -677 -26 -635 -5 -649 -5 -676 -26 -78
-58 -92 -129 -46 -226 41 -85 58 -149 81 -303 25 -165 39 -333 47 -566 10
-270 -13 -421 -87 -575 -44 -94 -103 -159 -174 -194 -44 -22 -63 -25 -155 -25
-136 1 -180 20 -215 98 -32 70 -42 144 -55 397 -11 216 -32 429 -49 485 -54
182 -194 367 -392 517 -151 116 -409 256 -621 339 l-88 34 0 1063 0 1062 1330
0 1330 0 14 -22z"/>
</g>
</svg>
