<svg width="20" height="21" xmlns="http://www.w3.org/2000/svg">
    <path
        d="M10.004 5.295c-2.839 0-5.13 2.29-5.13 5.13 0 2.838 2.291 5.129 5.13 5.129 2.84 0 5.13-2.29 5.13-5.13 0-2.839-2.29-5.13-5.13-5.13zm0 8.464a3.34 3.34 0 01-3.334-3.335 3.338 3.338 0 013.334-3.335 3.338 3.338 0 013.335 3.335 3.34 3.34 0 01-3.335 3.335zm6.536-8.674c0 .665-.536 1.196-1.196 1.196a1.197 1.197 0 111.196-1.196zm3.397 1.214c-.076-1.602-.442-3.022-1.616-4.192C17.151.937 15.732.572 14.13.491c-1.651-.094-6.602-.094-8.254 0-1.598.076-3.018.442-4.192 1.612C.509 3.273.147 4.693.067 6.295c-.094 1.652-.094 6.603 0 8.254.076 1.603.442 3.023 1.616 4.192 1.174 1.17 2.59 1.536 4.192 1.616 1.652.094 6.603.094 8.254 0 1.603-.076 3.023-.442 4.192-1.616 1.17-1.17 1.536-2.59 1.616-4.192.094-1.651.094-6.598 0-8.25zm-2.134 10.023a3.376 3.376 0 01-1.901 1.901c-1.317.523-4.442.402-5.898.402-1.455 0-4.584.116-5.897-.402a3.377 3.377 0 01-1.902-1.901c-.522-1.317-.401-4.442-.401-5.898 0-1.455-.117-4.585.401-5.897a3.376 3.376 0 011.902-1.902c1.317-.522 4.442-.402 5.897-.402 1.456 0 4.585-.116 5.898.402a3.376 3.376 0 011.902 1.902c.522 1.317.401 4.442.401 5.897 0 1.456.12 4.585-.401 5.898z" />
</svg>