<?xml version="1.0" standalone="no"?>
<!DOCTYPE svg PUBLIC "-//W3C//DTD SVG 20010904//EN"
 "http://www.w3.org/TR/2001/REC-SVG-20010904/DTD/svg10.dtd">
<svg version="1.0" xmlns="http://www.w3.org/2000/svg"
 width="512.000000pt" height="512.000000pt" viewBox="0 0 512.000000 512.000000"
 preserveAspectRatio="xMidYMid meet">

<g transform="translate(0.000000,512.000000) scale(0.100000,-0.100000)"
fill="#000000" stroke="none">
<path d="M2738 4950 c-178 -32 -300 -115 -368 -250 -63 -124 -85 -247 -100
-545 -21 -415 -36 -478 -152 -612 -117 -137 -390 -316 -630 -413 l-56 -23 -32
36 c-18 21 -48 42 -68 47 -25 8 -209 10 -554 8 -504 -3 -517 -4 -544 -24 -15
-11 -37 -33 -48 -48 -21 -27 -21 -29 -21 -1446 0 -1417 0 -1419 21 -1446 11
-15 33 -37 48 -48 27 -20 40 -21 544 -24 345 -2 529 0 554 8 45 13 95 68 104
115 l6 35 1367 2 1366 3 55 26 c74 35 134 98 175 183 26 53 99 313 285 1011
223 838 250 948 250 1016 0 227 -157 421 -378 468 -35 7 -224 11 -554 11
l-500 0 6 23 c13 53 47 282 62 427 25 225 25 634 1 754 -75 367 -240 597 -488
682 -58 20 -99 26 -189 29 -63 2 -136 0 -162 -5z m277 -340 c134 -65 225 -240
257 -497 18 -150 -3 -574 -43 -838 -23 -154 -40 -218 -81 -303 -46 -97 -32
-168 46 -226 27 -21 41 -21 676 -26 638 -5 649 -5 677 -26 45 -34 73 -82 73
-128 0 -49 -484 -1870 -506 -1903 l-14 -23 -1330 0 -1330 0 0 1063 0 1062 88
34 c212 83 470 223 621 339 198 150 338 335 392 517 17 56 38 269 49 485 13
253 23 327 55 397 36 79 94 104 235 100 66 -2 97 -8 135 -27z m-1895 -2930 l0
-1200 -320 0 -320 0 0 1200 0 1200 320 0 320 0 0 -1200z"/>
</g>
</svg>
