<svg width="17" height="24" viewBox="0 0 17 24" fill="none" xmlns="http://www.w3.org/2000/svg">
<g clip-path="url(#clip0_722_6)">
<path d="M8.88072 0.85791C4.40372 0.85791 0.761719 4.49991 0.761719 8.97591C0.761719 14.5319 8.18772 22.6879 8.49672 23.0329C8.78672 23.3559 8.76972 23.3559 9.05972 23.0329C9.36972 22.6879 16.9997 14.5329 16.9997 8.97591C16.9997 4.49991 13.3577 0.85791 8.88072 0.85791Z" fill="#48A216"/>
<path d="M9 14C10.3261 14 11.5979 13.4732 12.5355 12.5355C13.4732 11.5979 14 10.3261 14 9C14 7.67392 13.4732 6.40215 12.5355 5.46447C11.5979 4.52678 10.3261 4 9 4C7.67392 4 6.40215 4.52678 5.46447 5.46447C4.52678 6.40215 4 7.67392 4 9C4 10.3261 4.52678 11.5979 5.46447 12.5355C6.40215 13.4732 7.67392 14 9 14V14Z" fill="white"/>
<path d="M9 11C10.1046 11 11 10.1046 11 9C11 7.89543 10.1046 7 9 7C7.89543 7 7 7.89543 7 9C7 10.1046 7.89543 11 9 11Z" fill="#48A216"/>
</g>
<defs>
<clipPath id="clip0_722_6">
<rect width="17" height="24" fill="white"/>
</clipPath>
</defs>
</svg>
