<svg width="14" height="14" viewBox="0 0 14 14" fill="none" xmlns="http://www.w3.org/2000/svg">
<path d="M6.1037 0.814077C6.4707 0.0714674 7.52971 0.0714673 7.89671 0.814077L9.2074 3.46628C9.35303 3.76096 9.63418 3.96526 9.95944 4.01275L12.8902 4.44061C13.7105 4.56037 14.0372 5.56884 13.443 6.14689L11.3254 8.20701C11.0892 8.43681 10.9814 8.76823 11.0372 9.09302L11.5369 12.0034C11.6772 12.8202 10.82 13.4433 10.0863 13.058L7.46523 11.6812C7.17408 11.5282 6.82634 11.5282 6.53518 11.6812L3.91409 13.058C3.1804 13.4433 2.32324 12.8202 2.46349 12.0034L2.96325 9.09302C3.01902 8.76823 2.91119 8.43681 2.67499 8.20701L0.557384 6.14689C-0.0367997 5.56884 0.289953 4.56037 1.11023 4.44061L4.04097 4.01275C4.36623 3.96526 4.64738 3.76096 4.79301 3.46628L6.1037 0.814077Z" fill="#111111"/>
</svg>
