<svg width="14" height="16" viewBox="0 0 14 16"   xmlns="http://www.w3.org/2000/svg">
<path d="M13.9909 14.5866C14.0844 15.3632 13.4456 16 12.6727 16C8.1171 16 6.64624 16 1.32719 16C0.55428 16 -0.08442 15.3632 0.00912517 14.5866C0.535595 10.2156 3.46505 7.87037 7 7.87037C10.535 7.87037 13.4644 10.2156 13.9909 14.5866Z"  />
<path d="M10.3432 3.38426C10.3432 5.25333 8.8464 6.76852 7 6.76852C5.1536 6.76852 3.6568 5.25333 3.6568 3.38426C3.6568 1.51518 5.1536 0 7 0C8.8464 0 10.3432 1.51518 10.3432 3.38426Z"  />
</svg>
