<?xml version="1.0" encoding="utf-8"?><svg fill="#666" version="1.0" xmlns="http://www.w3.org/2000/svg" width="682.667" height="682.667" viewBox="0 0 512 512"><path d="M195.5 49c-15.9 3.3-31.2 14.2-39.3 27.9-1.5 2.5-5 11.3-7.8 19.6l-5.1 15-40.4.5-40.4.5-6.7 2.6c-18.5 7.2-30.7 19.7-37 37.8l-2.3 6.6v258l2.6 6.7c7.8 20 21.9 32.8 41.5 37.8 7.6 2 11.8 2 195.4 2s187.8 0 195.4-2c11.1-2.8 19-7.3 27.1-15.5 8.2-8.1 12.7-16 15.5-27.1 1.9-7.5 2-11.5 2-131.4s-.1-123.9-2-131.4c-5.1-20-18.3-34.2-39-41.9-5.1-2-8.2-2.1-45.9-2.7l-40.4-.5-5.1-15c-5.8-17.1-8.4-22.1-16-30.2-6.1-6.5-13.4-11.3-23.4-15.2l-6.7-2.6-59-.2c-32.4-.1-60.8.2-63 .7zm118.1 32.5c6.1 1.8 11.8 6.4 14.6 11.8 1.2 2.3 4.9 12.7 8.4 23.1 3.5 10.4 7.1 20 7.9 21.3.9 1.4 3.5 3.3 5.8 4.4 3.9 1.7 7.2 1.9 47.8 1.9 49.9 0 50 0 57.9 8 8.6 8.5 8-1.5 8 136s.6 127.5-8 136c-8.6 8.7 9.5 8-200 8s-191.4.7-200-8c-8.6-8.5-8 1.5-8-136s-.6-127.5 8-136c7.9-8 8-8 57.9-8 40.3 0 43.9-.2 47.7-1.9 5.5-2.5 7.2-5.6 13.9-26.1 6.9-20.9 9.2-25.8 14.2-29.9 7.1-5.9 7.7-6 65.9-6 43.9-.1 53.9.2 58 1.4z"/><path d="M242.5 160.6c-16.9 2.6-29.6 6.7-43.1 13.8-31.1 16.6-53.4 46.3-61 81.6-2.6 11.8-2.6 36.2 0 48 10.4 48.2 47.5 84.5 96.1 94.1 9.1 1.8 33.9 1.8 43 0 48.8-9.6 84.9-45 96.2-94.3 2.3-10.1 2.3-37.3 0-47.6-11-48.3-46.1-83.4-93.9-93.8-7.1-1.5-31.2-2.7-37.3-1.8zm35 34.2c32.5 8.9 55.4 32 64.1 64.8 2.7 10.3 2.6 31.2-.3 41.9-8.7 32-31.8 55.1-63.8 63.8-10.7 2.9-31.6 3-41.9.3-38.6-10.3-64.8-41.6-67.3-80.5-1.6-24.8 7.7-49 25.7-67.1 13.2-13.1 28.2-21.1 46.5-24.6 9.4-1.8 27.8-1.1 37 1.4zm132-17.4c-10.1 4.4-12.5 17.8-4.6 25.7 11.2 11.3 29.6 1.2 26.7-14.6-1.8-9.4-13.1-15.1-22.1-11.1z"/></svg>