<?xml version="1.0" standalone="no"?><svg version="1.0" xmlns="http://www.w3.org/2000/svg" width="682.667" height="682.667" viewBox="0 0 512 512"><path d="M25.5 17.4c-4.1 1.8-8.3 6.9-9 10.9-.3 1.8-.4 65.8-.3 142.4.3 138.8.3 139.2 2.4 141.9 1.1 1.5 3.3 3.7 4.8 4.8 2.7 2 4 2.1 54.4 2.4 34.5.2 52.9 0 55.4-.8 2-.5 5-2.6 6.8-4.7l3.2-3.6 5.6 2.3c17.1 6.9 41.8 21.6 53.2 31.6 12.4 10.9 19.9 22.2 21.9 33 .6 2.8 1.5 13 2.1 22.5 3 48.8 3.9 54.5 10 67.7 4.8 10.2 11.9 17.6 21 21.9 9.8 4.6 16 5.8 30.5 5.8 10.8 0 14.2-.4 20-2.3 25.9-8.6 42.6-31.4 50.2-68.8 2.4-12 2.4-52.9-.1-75.4-1.5-14.5-4.9-37.4-6.2-42.7l-.6-2.3h50c33 0 51.9-.4 55.4-1.1 22.1-4.7 37.8-24.1 37.8-46.8 0-6.8-2.7-17.7-25-101.6-14.9-55.8-26.3-96.5-28-100.2-3.7-8-10.8-15.5-17.9-19l-5.6-2.8-136.6-.3-136.7-.2-.6-3.5c-.8-4.3-5-9.4-9.3-11.1-4.7-2-104.3-2-108.8 0zM112 168v120H48V48h64v120zM411.4 66.2c2.2 3.4 50.6 185.6 50.6 190.4 0 4.6-2.8 9.4-7.3 12.8-2.8 2.1-3.9 2.1-67.7 2.6-63.5.5-64.9.5-67.6 2.6-7.8 5.8-9.2 12.9-4.6 22.6 4.1 8.5 5.8 14.9 8.1 30.3 2.5 16.5 3.9 33.3 4.7 56.6 1 27-1.3 42.1-8.7 57.5-4.4 9.4-10.3 15.9-17.4 19.4-4.4 2.2-6.3 2.5-15.5 2.5-13.6-.1-18-2-21.5-9.8-3.2-7-4.2-14.4-5.5-39.7-1.1-21.6-3.2-42.9-4.9-48.5-5.4-18.2-19.4-36.7-39.2-51.7-15.1-11.6-40.9-25.6-62.1-33.9l-8.8-3.4V64h266l1.4 2.2z"/></svg>