<?xml version="1.0" standalone="no"?><svg version="1.0" xmlns="http://www.w3.org/2000/svg" width="682.667" height="682.667" viewBox="0 0 512 512"><path d="M273.8 17c-17.8 3.2-30 11.5-36.8 25-6.3 12.4-8.5 24.7-10 54.5-2.1 41.5-3.6 47.8-15.2 61.2-11.7 13.7-39 31.6-63 41.3l-5.6 2.3-3.2-3.6c-1.8-2.1-4.8-4.2-6.8-4.7-2.5-.8-20.9-1-55.4-.8-50.4.3-51.7.4-54.4 2.4-1.5 1.1-3.7 3.3-4.8 4.8-2.1 2.7-2.1 2.9-2.1 144.6s0 141.9 2.1 144.6c1.1 1.5 3.3 3.7 4.8 4.8 2.7 2 4 2.1 54.4 2.4 34.5.2 52.9 0 55.4-.8 4.5-1.3 9.5-6.8 10.4-11.5l.6-3.5 136.7-.2 136.6-.3 5.5-2.6c7.4-3.5 13.4-9.8 17.5-18.3 2.6-5.3 9.9-31.3 28.5-101.1 22.3-83.8 25-94.8 25-101.6 0-22.7-15.7-42.1-37.8-46.8-3.5-.7-22.4-1.1-55.4-1.1h-50l.6-2.3c1.3-5.3 4.7-28.2 6.2-42.7 2.5-22.5 2.5-63.4.1-75.4-7.5-36.7-24-59.7-48.8-68.2-5.8-2-9.9-2.6-18.9-2.9-6.3-.2-13.6 0-16.2.5zm27.7 34c13.4 6.5 22.5 24 25.7 49.7 1.8 15-.3 57.4-4.3 83.8-2.3 15.4-4 21.8-8.1 30.3-4.6 9.7-3.2 16.8 4.6 22.6 2.7 2.1 4.1 2.1 67.6 2.6 63.8.5 64.9.5 67.7 2.6 4.5 3.4 7.3 8.2 7.3 12.8 0 4.9-48.4 187-50.6 190.3L410 448H144V235.5l8.8-3.4c21.2-8.3 47-22.3 62.1-33.9 19.8-15 33.8-33.5 39.2-51.7 1.7-5.6 3.8-26.9 4.9-48.5 1.3-25.3 2.3-32.7 5.5-39.7 3.6-7.9 9.4-10.4 23.5-10 6.6.2 9.7.8 13.5 2.7zM112 344v120H48V224h64v120z"/></svg>