<?xml version="1.0" encoding="utf-8"?><svg viewBox="0 0 1310.667 1306.667" xmlns="http://www.w3.org/2000/svg" xmlns:xlink="http://www.w3.org/1999/xlink"><style>:root>svg{display:none}:root>svg:target{display:block}</style><svg fill="none" viewBox="0 0 6 10" id="ic_arr-back" xmlns="http://www.w3.org/2000/svg"><path d="M5 9L1 5l4-4" stroke="#525166" stroke-linecap="round" stroke-linejoin="round"/></svg><svg fill="none" viewBox="0 0 12 12" id="ic_arr-back-popup" xmlns="http://www.w3.org/2000/svg"><path d="M11 6H1m5 5L1 6l5-5" stroke="#92919F" stroke-linecap="round" stroke-linejoin="round"/></svg><svg fill="none" viewBox="0 0 24 24" id="ic_arr-down" xmlns="http://www.w3.org/2000/svg"><path d="M6 9l6 6 6-6"/></svg><svg fill="none" viewBox="0 0 7 7" id="ic_arr-link" xmlns="http://www.w3.org/2000/svg"><path fill-rule="evenodd" clip-rule="evenodd" d="M1.409 0v6.154H0V0h1.409z" fill="#fff"/><path fill-rule="evenodd" clip-rule="evenodd" d="M0 0h6.076v1.338H0V0z" fill="#fff"/><path fill-rule="evenodd" clip-rule="evenodd" d="M6.041 7L.616 1.506l.96-.97L7 6.028 6.041 7z" fill="#fff"/></svg><svg fill="none" viewBox="0 0 6 10" id="ic_arr-next" xmlns="http://www.w3.org/2000/svg"><path d="M1 1l4 4-4 4" stroke="#fff" stroke-linecap="round" stroke-linejoin="round"/></svg><svg fill="none" viewBox="0 0 24 24" id="ic_arr-up" xmlns="http://www.w3.org/2000/svg"><path d="M18 15l-6-6-6 6"/></svg><svg viewBox="0 0 280.067 280.067" id="ic_attach" xmlns="http://www.w3.org/2000/svg"><path d="M149.823 257.142c-31.398 30.698-81.882 30.576-113.105-.429-31.214-30.987-31.337-81.129-.42-112.308l-.026-.018L149.841 31.615l14.203-14.098c23.522-23.356 61.65-23.356 85.172 0s23.522 61.221 0 84.586l-125.19 123.02-.044-.035c-15.428 14.771-40.018 14.666-55.262-.394-15.244-15.069-15.34-39.361-.394-54.588l-.044-.053 13.94-13.756 69.701-68.843 13.931 13.774-83.632 82.599c-7.701 7.596-7.701 19.926 0 27.53s20.188 7.604 27.88 0L235.02 87.987l-.035-.026.473-.403c15.682-15.568 15.682-40.823 0-56.39s-41.094-15.568-56.776 0l-.42.473-.026-.018-14.194 14.089L50.466 158.485c-23.522 23.356-23.522 61.221 0 84.577s61.659 23.356 85.163 0l99.375-98.675 14.194-14.089 14.194 14.089-14.194 14.098-99.357 98.675-.018-.018z" fill="#525166"/></svg><svg fill="none" viewBox="0 0 4 6" id="ic_breadcrumbs" xmlns="http://www.w3.org/2000/svg"><path fill-rule="evenodd" clip-rule="evenodd" d="M3.255 3.71L0 .691.745 0 4 3.019l-.745.691z" fill="#525166"/><path fill-rule="evenodd" clip-rule="evenodd" d="M4 3.019L.786 6 .08 5.344l3.213-2.981.708.656z" fill="#525166"/></svg><svg fill="#444" version="1.0" viewBox="0 0 512 512" id="ic_calendar" xmlns="http://www.w3.org/2000/svg"><path d="M121.5 1.4c-3.7 1.7-7 5.2-8.4 8.9-.6 1.6-1.1 8.8-1.1 16.2v13.3l-29.2.4c-28.7.3-29.5.4-36.9 3-20.8 7.3-35.3 21.7-42.6 42.3l-2.8 8v365l2.8 8c7.3 20.6 21.7 34.9 42.6 42.3l7.6 2.7h405l8-2.8c20.6-7.3 34.9-21.7 42.3-42.6l2.7-7.6v-365l-2.7-7.6c-7.4-20.9-21.7-35.3-42.3-42.6-7.9-2.7-8.2-2.8-37.2-3.1l-29.2-.4-.3-14.8c-.3-16.2-.8-17.7-7.2-22.4-3.9-2.9-13.3-2.9-17.2 0-6.4 4.7-6.9 6.2-7.2 22.5l-.3 14.9H144.1l-.3-14.9c-.3-16.2-.8-17.8-7-22.4-3.4-2.5-11.3-3.2-15.3-1.3zm-9.3 81.5c.3 11.8 1.2 14.1 7.2 18.5 3.9 2.9 13.3 2.9 17.2 0 6-4.4 6.9-6.7 7.2-18.5l.4-10.9h223.6l.4 10.9c.3 11.8 1.2 14.1 7.2 18.5 3.9 2.9 13.3 2.9 17.2 0 6-4.4 6.9-6.7 7.2-18.5l.4-11 27.1.3 27.2.3 5.7 2.8c7.2 3.5 13 9.3 16.5 16.5 2.8 5.7 2.8 5.8 3.1 28.9l.3 23.3H32v-21.3c0-15.8.4-22.6 1.4-26.2 3.1-10.1 11.8-19.2 21.9-22.7 4.5-1.5 8.9-1.7 30.9-1.8h25.6l.4 10.9zm367.6 232.3l-.3 139.3-2.7 5.5c-3.5 7.1-9.7 13.3-16.7 16.8l-5.6 2.7h-397l-5.5-2.7c-7.1-3.5-13.3-9.7-16.8-16.7l-2.7-5.6-.3-139.3L32 176h448l-.2 139.2z"/></svg><svg fill="#666" version="1.0" viewBox="0 0 512 512" id="ic_camera" xmlns="http://www.w3.org/2000/svg"><path d="M195.5 49c-15.9 3.3-31.2 14.2-39.3 27.9-1.5 2.5-5 11.3-7.8 19.6l-5.1 15-40.4.5-40.4.5-6.7 2.6c-18.5 7.2-30.7 19.7-37 37.8l-2.3 6.6v258l2.6 6.7c7.8 20 21.9 32.8 41.5 37.8 7.6 2 11.8 2 195.4 2s187.8 0 195.4-2c11.1-2.8 19-7.3 27.1-15.5 8.2-8.1 12.7-16 15.5-27.1 1.9-7.5 2-11.5 2-131.4s-.1-123.9-2-131.4c-5.1-20-18.3-34.2-39-41.9-5.1-2-8.2-2.1-45.9-2.7l-40.4-.5-5.1-15c-5.8-17.1-8.4-22.1-16-30.2-6.1-6.5-13.4-11.3-23.4-15.2l-6.7-2.6-59-.2c-32.4-.1-60.8.2-63 .7zm118.1 32.5c6.1 1.8 11.8 6.4 14.6 11.8 1.2 2.3 4.9 12.7 8.4 23.1 3.5 10.4 7.1 20 7.9 21.3.9 1.4 3.5 3.3 5.8 4.4 3.9 1.7 7.2 1.9 47.8 1.9 49.9 0 50 0 57.9 8 8.6 8.5 8-1.5 8 136s.6 127.5-8 136c-8.6 8.7 9.5 8-200 8s-191.4.7-200-8c-8.6-8.5-8 1.5-8-136s-.6-127.5 8-136c7.9-8 8-8 57.9-8 40.3 0 43.9-.2 47.7-1.9 5.5-2.5 7.2-5.6 13.9-26.1 6.9-20.9 9.2-25.8 14.2-29.9 7.1-5.9 7.7-6 65.9-6 43.9-.1 53.9.2 58 1.4z"/><path d="M242.5 160.6c-16.9 2.6-29.6 6.7-43.1 13.8-31.1 16.6-53.4 46.3-61 81.6-2.6 11.8-2.6 36.2 0 48 10.4 48.2 47.5 84.5 96.1 94.1 9.1 1.8 33.9 1.8 43 0 48.8-9.6 84.9-45 96.2-94.3 2.3-10.1 2.3-37.3 0-47.6-11-48.3-46.1-83.4-93.9-93.8-7.1-1.5-31.2-2.7-37.3-1.8zm35 34.2c32.5 8.9 55.4 32 64.1 64.8 2.7 10.3 2.6 31.2-.3 41.9-8.7 32-31.8 55.1-63.8 63.8-10.7 2.9-31.6 3-41.9.3-38.6-10.3-64.8-41.6-67.3-80.5-1.6-24.8 7.7-49 25.7-67.1 13.2-13.1 28.2-21.1 46.5-24.6 9.4-1.8 27.8-1.1 37 1.4zm132-17.4c-10.1 4.4-12.5 17.8-4.6 25.7 11.2 11.3 29.6 1.2 26.7-14.6-1.8-9.4-13.1-15.1-22.1-11.1z"/></svg><svg version="1.0" viewBox="0 0 983 980" id="ic_chain" xmlns="http://www.w3.org/2000/svg"><path d="M751.5.9c-.6.5-3.9 1.2-7.5 1.4-8.2.7-13.9 1.6-16.5 2.6-1.1.5-4.5 1.4-7.5 2.1-6.9 1.5-26.2 7.9-27.4 9.1-.6.5-1.8.9-2.8.9-1 0-1.8.4-1.8 1 0 .5-1.1 1-2.5 1s-2.5.4-2.5 1c0 .5-.9 1-2 1s-2 .3-2 .8c0 .4-1.4 1.3-3.1 2.1-3.7 1.6-13.7 7.5-16.4 9.6-1.1.9-3.2 2.4-4.7 3.3-1.6.9-2.8 2-2.8 2.4 0 .4-.6.8-1.3.8-.7 0-1.9.9-2.7 2-.8 1.1-2 2-2.7 2-1.9 0-11.3 9.2-88.2 86-72 72-73 73-77.2 84-2.2 5.7-1.7 20.6.9 25.9 1.2 2.5 2.2 5 2.2 5.6 0 .6.9 1.7 2 2.5s2 1.9 2 2.5c0 3.1 15.9 13.5 20.7 13.5 1.3 0 2.3.4 2.3 1s3.5 1 8.5 1 8.5-.4 8.5-1 1.2-1 2.6-1c2.4 0 11.4-4.3 15-7.2.9-.7 4.8-4.6 8.7-8.7 4-4.1 8.3-8.3 9.6-9.5 1.4-1.2 5.7-5.4 9.5-9.5 3.9-4.1 8.2-8.3 9.5-9.5 1.4-1.2 5.7-5.4 9.5-9.5 3.9-4.1 8.2-8.3 9.5-9.5 1.4-1.2 5.7-5.4 9.5-9.5 3.9-4 8.2-8.3 9.5-9.5 1.3-1.1 18.1-17.9 37.5-37.1 19.3-19.3 36.4-35.9 37.9-37 1.6-1.1 3.8-2.8 4.9-3.7 1.1-1 2.9-2 3.9-2.3 1.1-.4 1.9-1 1.9-1.4 0-.4 1.6-1.3 3.5-2.1s3.5-1.7 3.5-2.2c0-.4.9-.8 2-.8s2-.5 2-1c0-.6.9-1 2-1s2-.5 2-1c0-.6.9-1 2-1s2-.5 2-1c0-.6.8-1 1.7-1 .9 0 4.2-.9 7.2-2 10.9-3.8 19.9-5 37.3-5 14.5 0 18.3.3 28 2.6 6.2 1.4 11.7 3 12.2 3.5.6.5 1.6.9 2.3.9.8 0 3.3.9 5.5 2 2.3 1.1 4.8 2 5.5 2 .7 0 1.3.4 1.3.8 0 .5 1.6 1.4 3.5 2.2 1.9.8 3.5 1.7 3.5 2.1 0 .4.9 1.1 2 1.4 1.1.3 2.6 1.2 3.2 1.8.7.7 3.1 2.4 5.3 3.9 2.2 1.4 5.4 4 7.2 5.7 1.8 1.7 3.5 3.1 3.8 3.1.7 0 5.5 4.7 5.5 5.5 0 .3 1.3 1.9 2.9 3.5 1.6 1.7 4.2 4.9 5.7 7.3 1.6 2.3 3.7 5.1 4.7 6.1.9 1.1 1.7 2.6 1.7 3.3 0 .7.4 1.3.8 1.3.5 0 1.4 1.6 2.2 3.5.8 1.9 1.7 3.5 2.2 3.5.4 0 .8.8.8 1.8s.4 2.2.9 2.7c1.4 1.6 5.9 15.3 8.1 24.8 2.6 11.2 2.8 37.6.5 48.9-1.7 8.2-7.6 26.1-8.7 26.6-.5.2-.8 1.2-.8 2.3 0 1-.4 1.9-.8 1.9-.5 0-1.4 1.6-2.2 3.5-.8 1.9-1.7 3.5-2.2 3.5-.4 0-.8.9-.8 1.9 0 1.1-.4 2.1-.8 2.3-.4.1-3 3.3-5.6 7.1-3 4.2-53.1 54.9-135.3 137C592.3 553.1 596.4 549 595.2 549c-.4 0-1.4.9-2.2 2-.8 1.1-2 2-2.7 2-.7 0-1.3.4-1.3 1 0 .5-.6 1-1.4 1-.8 0-1.6.4-1.8.9-.5 1.3-17.2 10.1-19.1 10.1-.9 0-1.7.4-1.7 1 0 .5-.9 1-1.9 1-1.1 0-2.3.4-2.6 1-.3.5-1.7 1-3.1 1-1.3 0-2.4.4-2.4.9s-1.7 1.1-3.7 1.4c-2.1.3-6.3 1.1-9.3 1.8-7.4 1.6-38.8 1.6-46.5.1-3.3-.7-7.5-1.6-9.3-1.9-1.8-.3-3.5-.9-3.8-1.4-.3-.5-1.6-.9-3-.9-1.3 0-2.4-.5-2.4-1 0-.6-1.1-1-2.5-1s-2.5-.5-2.5-1c0-.6-.8-1-1.7-1-1 0-4.5-1.5-7.8-3.3-9.3-5.1-10.9-6.1-12.6-8-.9-.9-2.2-1.7-2.9-1.7-.7 0-2-.8-2.9-1.8-.9-.9-4.3-3.9-7.6-6.7-3.3-2.7-6.7-5.7-7.5-6.6-.8-.8-3-2.2-4.7-3-1.8-.7-3.3-1.7-3.3-2.1 0-.5-1.1-.8-2.4-.8-1.3 0-2.6-.5-2.8-1.1-.3-.8-4.2-1.2-11.8-1.2-7.6 0-11.5.4-11.8 1.2-.2.6-1.1 1.1-2.1 1.1-2.2 0-7.1 2.3-7.1 3.2 0 .5-.5.8-1.1.8-.6 0-1.6.6-2.3 1.2-.7.7-2.5 2.2-3.9 3.3-1.5 1.1-2.7 2.4-2.7 3 0 .6-.9 1.7-2 2.5s-2 2.2-2 3.2-.4 1.8-1 1.8c-.5 0-1 .9-1 2s-.4 2-.9 2c-.8 0-1.2 1.5-2.7 11.8-.7 4.3.9 13.9 2.7 17.4.5 1 .9 2.5.9 3.3 0 .8.4 1.5.8 1.5.5 0 1.5 1.2 2.3 2.7.8 1.6 2.7 4.1 4.4 5.7 11.4 10.8 13.4 12.6 14 12.6.4 0 1.5.8 2.4 1.8.9 1 4.5 3.9 8.1 6.4 3.6 2.6 7 5.1 7.5 5.5.6.4 2.2 1.4 3.8 2.2 1.5.8 2.7 1.8 2.7 2.3 0 .4.9.8 2 .8s2 .3 2 .7c0 .5 1 1.3 2.3 1.9 1.2.6 4 2.1 6.2 3.2 7.1 3.8 14.8 7.2 16.2 7.2.7 0 1.3.4 1.3 1 0 .5 1.4 1 3 1 1.7 0 3 .4 3 1 0 .5 1.1 1 2.4 1 1.4 0 2.8.4 3.1 1 .3.5 1.7 1 3.1 1 1.3 0 2.4.4 2.4 1 0 .5 1.8 1 4 1s4 .4 4 .9c0 .4 1.9 1.1 4.3 1.5 2.3.3 6.5 1 9.2 1.6 21.9 4.3 50.5 4.3 74.5-.1 3-.5 7.2-1.3 9.3-1.6 2-.3 4-.9 4.3-1.4.3-.5 2.1-.9 4-.9s3.4-.5 3.4-1c0-.6 1.1-1 2.4-1 1.4 0 2.8-.5 3.1-1 .3-.6 1.7-1 3.1-1 1.3 0 2.4-.5 2.4-1 0-.6.9-1 2-1s2.8-.4 3.8-.9c.9-.5 3.3-1.6 5.2-2.3 1.9-.7 6.4-2.8 10-4.7 3.6-1.8 7.5-3.8 8.7-4.5 1.3-.6 2.3-1.4 2.3-1.9 0-.4.9-.7 2-.7s2-.5 2-1c0-.6.7-1 1.5-1s1.5-.5 1.5-1c0-.6.7-1 1.5-1s1.5-.5 1.5-1c0-.6.5-1 1.1-1 1.1 0 8.9-5.5 12.6-9 1.2-1.1 2.4-2 2.7-2 .3 0 3.1-2.4 6.2-5.3 12.3-11.3 272.2-271.4 274.9-275.2 1.7-2.2 3.8-4.7 4.7-5.6 1-.9 1.8-2 1.8-2.5s1.3-2.4 2.9-4.3c1.6-1.9 3.5-4.6 4.3-6 .7-1.4 1.5-2.8 1.9-3.1.6-.5 4.5-7.4 9-15.9 1.6-2.9 2.9-6.2 2.9-7.2s.3-1.9.8-1.9c.4 0 1.3-1.5 2-3.3.8-1.7 1.8-4.1 2.2-5.2 5-11.7 10.5-33.9 11.6-46.5.3-3 .9-6.4 1.5-7.5 1.2-2.6.5-36.4-1-46-3.2-20.6-8.4-41-12.1-47.7-.6-1-1-2.5-1-3.3 0-.8-.4-1.5-1-1.5-.5 0-1-.9-1-2s-.4-2-1-2c-.5 0-1-.7-1-1.5 0-1.7-10.2-21.7-12-23.5-.3-.3-1.1-1.7-1.9-3.3-.8-1.5-1.8-2.7-2.3-2.7-.4 0-.8-.6-.8-1.3 0-.7-.9-1.9-2-2.7-1.1-.8-2-1.9-2-2.5 0-.6-1.5-2.8-3.2-4.8-1.8-2-4.6-5.3-6.3-7.3-4.3-5.3-16.3-17.2-21.9-21.9-2.7-2.2-6-5-7.5-6.2-1.4-1.3-3.1-2.3-3.6-2.3-.6 0-1.7-.9-2.5-2s-2-2-2.7-2c-.7 0-1.3-.4-1.3-.8 0-.5-1.2-1.5-2.7-2.3-1.6-.8-3-1.7-3.3-2-1.1-1.3-18-9.9-19.4-9.9-.9 0-1.6-.5-1.6-1 0-.6-.9-1-2-1s-2-.5-2-1c0-.6-.9-1-2-1s-2-.5-2-1c0-.6-.8-1-1.8-1s-2.2-.4-2.7-.8c-1-.8-12-4.5-19.5-6.4-14.1-3.7-20.1-4.9-28-5.5-3.6-.2-6.9-.9-7.4-1.4-.6-.5-9.4-.9-19.6-.9-10.2 0-19 .4-19.5.9z"/><path d="M415.5 339c-2.2.5-6.6.9-9.7.9-3.2.1-5.8.5-5.8 1.1 0 .5-2.2 1-5 1-2.7 0-5 .4-5 1 0 .5-1.8 1-3.9 1-2.2 0-4.3.4-4.6 1-.3.5-2.1 1-3.9 1-1.8 0-3.6.3-3.9.7-.4.3-4.4 2-9 3.5-13.9 4.9-14.7 5.3-14.7 6 0 .5-.9.8-1.9.8-1.1 0-2.3.4-2.6 1-.3.5-1.5 1-2.6 1-1 0-1.9.4-1.9 1 0 .5-.9 1-2 1s-2 .4-2 1c0 .5-.6 1-1.3 1-.7 0-2.3.9-3.5 2-1.2 1.1-2.8 2-3.7 2-.8 0-1.5.4-1.5 1 0 .5-.5 1-1 1-1.4 0-9.1 5-11.1 7.2-.9 1-2 1.8-2.5 1.8s-2.1 1-3.6 2.3c-1.4 1.2-4.6 3.8-7 5.7C295.4 391.2 45 641.6 45 642.8c0 .6-1.1 2.2-2.5 3.6s-2.5 3-2.5 3.6c0 .5-.4 1-1 1-.5 0-1 .5-1 1 0 .6-.8 2-1.8 3.1-1.1 1-2.5 3.2-3.3 4.7-.8 1.5-1.7 2.9-2 3.2-.3.3-1.9 3-3.5 6s-3.1 5.7-3.4 6c-.7.7-7.6 15.3-10.1 21.5-1.7 4.3-5.8 17.2-6.9 22-.6 2.7-1.5 6.6-2 8.5-1.8 7-2.2 9.6-2.7 16-.3 3.6-.9 6.9-1.4 7.4-1.2 1.3-1.2 37.9 0 39.1.5.6 1.1 3.9 1.5 7.5.7 8.4 1.9 14.6 5.4 28 1.9 7.5 5.6 18.5 6.4 19.4.4.6.8 1.8.8 2.8 0 1 .5 1.8 1 1.8.6 0 1 .9 1 2s.5 2 1 2c.6 0 1 .9 1 2s.5 2 1 2c.6 0 1 .6 1 1.4 0 1.5 6.5 14.1 8.5 16.6.7.8 2 3 2.9 4.8 1.6 3.1 3.5 5.8 6.3 8.7.7.8 1.3 1.8 1.3 2.4 0 .6.5 1.1 1 1.1.6 0 1 .5 1 1 0 .6 1 2.2 2.2 3.5 1.3 1.3 3.7 4 5.3 6.1 4.2 5.2 16.4 17.3 21 20.9 2.1 1.6 4.9 4 6.1 5.2 1.3 1.3 2.8 2.3 3.4 2.3.5 0 1 .4 1 1 0 .5.6 1 1.3 1 .7 0 1.9.9 2.7 2 .8 1.1 2 2 2.7 2 .7 0 1.3.4 1.3.9s.8 1.1 1.8 1.4c1.9.6 9.4 4.9 10.2 5.8 1.1 1.2 12.2 6.9 13.6 6.9.8 0 1.4.4 1.4 1 0 .5.9 1 2 1s2 .4 2 1c0 .5.9 1 1.9 1 1.1 0 2.1.4 2.3.8.2.4 4.8 2.3 10.3 4.1 17.8 5.9 25.5 7.7 43.5 10.3 13.9 1.9 58 1 58-1.3 0-.5 2-.9 4.5-.9s5.3-.4 6.3-.9c.9-.5 4.2-1.4 7.2-2.1 6.9-1.5 26.2-7.9 27.4-9.1.6-.5 1.8-.9 2.8-.9 1 0 1.8-.5 1.8-1 0-.6.9-1 1.9-1 1.1 0 2.3-.5 2.6-1 .3-.6 1.5-1 2.6-1 1 0 1.9-.5 1.9-1 0-.6.4-1 .8-1 1.2 0 16.3-8.6 19.2-11 1.4-1.1 3-2 3.5-2 .6 0 1.7-.9 2.5-2s2-2 2.7-2c.7 0 1.3-.3 1.3-.8 0-.4 1.7-1.8 3.7-3.2 2.1-1.4 5.7-4.3 8.2-6.5 5.9-5.4 124-123.4 126.9-126.9 3.1-3.7 5.5-8.2 7.2-13.6 1.8-5.4 1.8-23.2.1-23.8-.6-.2-1.1-1.5-1.1-2.8 0-1.3-.4-2.4-1-2.4-.5 0-1-.9-1-2s-.3-2-.8-2c-.4 0-1.8-1.8-3.2-4-1.4-2.2-2.7-4-3-4-.3 0-1.8-1.2-3.5-2.6-3-2.6-4.1-3.2-13-6.5-10.1-3.8-27.8-1.3-34.3 4.8-.7.7-1.7 1.3-2.2 1.3-.5 0-28.4 27.6-62.2 61.2-33.7 33.7-63.6 63.1-66.3 65.3-2.8 2.2-5.1 4.3-5.3 4.7-.2.5-.9.8-1.6.8-.7 0-2.1.8-3.2 1.8-1 1-3.4 2.5-5.1 3.2-1.8.8-3.3 1.8-3.3 2.2 0 .5-.9.8-2 .8s-2 .4-2 1c0 .5-.9 1-2 1s-2 .4-2 1c0 .5-.7 1-1.5 1s-2.3.4-3.3 1c-2.5 1.3-16.9 5.6-22.2 6.6-6.6 1.2-41.8.9-47-.4-2.5-.6-6.3-1.5-8.5-2-8.5-1.9-24.5-8.5-25.3-10.4-.2-.4-1.2-.8-2.3-.8-1 0-1.9-.4-1.9-.8 0-.5-1.1-1.4-2.4-2-1.4-.6-3.3-1.8-4.3-2.6-6-4.9-12.9-10.4-15.2-12-1.4-1-3.8-3.5-5.4-5.5-2.7-3.6-8.5-11-11.3-14.4-.8-.9-1.4-2.2-1.4-2.7 0-.6-.4-1-1-1-.5 0-1-.7-1-1.5s-.4-1.5-1-1.5c-.5 0-1-.9-1-1.9 0-1.1-.4-2.1-.8-2.3-1.9-.8-8.1-16-10.3-25.3-.6-2.2-1.5-6-2.1-8.5-1.5-5.8-1.5-41.9-.1-48.6 1.5-6.6 7.1-23.6 8.4-24.9.5-.5.9-1.7.9-2.7 0-1 .4-1.8.8-1.8.5 0 1.4-1.6 2.2-3.5.8-1.9 1.7-3.5 2.2-3.5.4 0 .8-.8.8-1.8s.9-2.4 2-3.2c1.1-.8 2-1.9 2-2.4s2.1-3.6 4.6-6.9c4.6-5.7 238.9-240.4 246-246.2 2-1.7 4.2-3.6 4.9-4.3.8-.6 1.8-1.2 2.4-1.2.6 0 1.1-.5 1.1-1 0-.6.6-1 1.3-1 .7 0 1.9-.9 2.7-2 .8-1.1 2.2-2 3.1-2 1 0 1.9-.4 2.1-.8.9-2.2 25.3-12.2 29.7-12.2 1.1 0 2.3-.5 2.6-1 .3-.6 2.6-1 5.1-1 2.4 0 4.4-.5 4.4-1 0-.7 6.3-.9 19.3-.6 19.7.4 27.5 1.1 29.1 2.7.6.5 1.9.9 3.1.9 2.3 0 13 3.8 19.4 6.9 2.5 1.1 5.1 2.1 5.8 2.1.7 0 1.3.4 1.3 1 0 .5.7 1 1.5 1s1.5.4 1.5 1c0 .5.7 1 1.5 1s1.5.4 1.5 1c0 .5.7 1 1.5 1s1.5.4 1.5 1c0 .5.6 1 1.3 1 .6 0 2.6 1.1 4.2 2.5 5.2 4.3 11.5 9.9 15.1 13.2 1.8 1.8 4 3.3 4.9 3.3.8 0 1.5.3 1.5.8 0 1.4 9.3 4.6 16.5 5.6 8.2 1.3 24.2-3.5 28.5-8.4 1-1.1 2.1-2 2.6-2 1.2-.1 7.4-8.4 7.4-9.8 0-.7.5-1.2 1-1.2.6 0 1-.9 1-2s.5-2 1-2c.6 0 1-1.4 1-3 0-1.7.5-3 1-3 .6 0 1-3.5 1-8.5s-.4-8.5-1-8.5c-.5 0-1-1.4-1-3 0-1.7-.4-3-1-3-.5 0-1-1.1-1-2.5s-.4-2.5-1-2.5c-.5 0-1-.6-1-1.4 0-1.6-12.1-14.2-18.9-19.6-2.5-1.9-5-4.1-5.7-4.8-.7-.6-1.6-1.2-2.1-1.2s-1.5-.9-2.3-2c-.8-1.1-1.9-2-2.5-2-.5 0-2.2-1.1-3.8-2.4-1.5-1.3-4.1-2.9-5.7-3.6-1.7-.7-3-1.6-3-1.9 0-.4-1.6-1.3-3.5-2.1s-3.5-1.7-3.5-2.2c0-.4-.9-.8-1.9-.8-1.1 0-2.1-.4-2.3-.8-.5-1.4-17-8.9-25.3-11.6-4.4-1.5-8.8-3.1-9.7-3.6-1-.6-3.1-1-4.7-1-1.7 0-3.3-.5-3.6-1-.3-.6-2.2-1-4.1-1-1.9 0-3.4-.4-3.4-.9s-2.4-1.2-5.2-1.5c-2.9-.3-8.7-1-12.8-1.6-10.2-1.4-37.6-2.1-42.5-1z"/></svg><svg fill="none" viewBox="0 0 10 8" id="ic_checkbox" xmlns="http://www.w3.org/2000/svg"><path d="M9 1L4 7 1 4" stroke="#525166" stroke-width="2" stroke-linecap="round" stroke-linejoin="round"/></svg><svg fill="none" viewBox="0 0 24 24" id="ic_close" xmlns="http://www.w3.org/2000/svg"><path d="M18 6L6 18M6 6l12 12" stroke="#fff" stroke-width="2" stroke-linecap="round" stroke-linejoin="round"/></svg><svg fill="none" viewBox="0 0 16 16" id="ic_comment" xmlns="http://www.w3.org/2000/svg"><path d="M15 10.333a1.556 1.556 0 01-1.556 1.556H4.111L1 15V2.556A1.556 1.556 0 012.556 1h10.888A1.556 1.556 0 0115 2.556v7.777z" stroke="#525166" stroke-linecap="round" stroke-linejoin="round"/></svg><svg fill="none" viewBox="0 0 14 14" id="ic_cross" xmlns="http://www.w3.org/2000/svg"><path d="M13 1L1 13M1 1l12 12" stroke="#92919F" stroke-width="2" stroke-linecap="round" stroke-linejoin="round"/></svg><svg fill="none" viewBox="0 0 15 15" id="ic_cross-white" xmlns="http://www.w3.org/2000/svg"><path d="M0 7.5h15M7.5 0v15" stroke="#fff"/></svg><svg version="1.0" viewBox="0 0 512 512" id="ic_dislike" xmlns="http://www.w3.org/2000/svg"><path d="M25.5 17.4c-4.1 1.8-8.3 6.9-9 10.9-.3 1.8-.4 65.8-.3 142.4.3 138.8.3 139.2 2.4 141.9 1.1 1.5 3.3 3.7 4.8 4.8 2.7 2 4 2.1 54.4 2.4 34.5.2 52.9 0 55.4-.8 2-.5 5-2.6 6.8-4.7l3.2-3.6 5.6 2.3c17.1 6.9 41.8 21.6 53.2 31.6 12.4 10.9 19.9 22.2 21.9 33 .6 2.8 1.5 13 2.1 22.5 3 48.8 3.9 54.5 10 67.7 4.8 10.2 11.9 17.6 21 21.9 9.8 4.6 16 5.8 30.5 5.8 10.8 0 14.2-.4 20-2.3 25.9-8.6 42.6-31.4 50.2-68.8 2.4-12 2.4-52.9-.1-75.4-1.5-14.5-4.9-37.4-6.2-42.7l-.6-2.3h50c33 0 51.9-.4 55.4-1.1 22.1-4.7 37.8-24.1 37.8-46.8 0-6.8-2.7-17.7-25-101.6-14.9-55.8-26.3-96.5-28-100.2-3.7-8-10.8-15.5-17.9-19l-5.6-2.8-136.6-.3-136.7-.2-.6-3.5c-.8-4.3-5-9.4-9.3-11.1-4.7-2-104.3-2-108.8 0zM112 168v120H48V48h64v120zM411.4 66.2c2.2 3.4 50.6 185.6 50.6 190.4 0 4.6-2.8 9.4-7.3 12.8-2.8 2.1-3.9 2.1-67.7 2.6-63.5.5-64.9.5-67.6 2.6-7.8 5.8-9.2 12.9-4.6 22.6 4.1 8.5 5.8 14.9 8.1 30.3 2.5 16.5 3.9 33.3 4.7 56.6 1 27-1.3 42.1-8.7 57.5-4.4 9.4-10.3 15.9-17.4 19.4-4.4 2.2-6.3 2.5-15.5 2.5-13.6-.1-18-2-21.5-9.8-3.2-7-4.2-14.4-5.5-39.7-1.1-21.6-3.2-42.9-4.9-48.5-5.4-18.2-19.4-36.7-39.2-51.7-15.1-11.6-40.9-25.6-62.1-33.9l-8.8-3.4V64h266l1.4 2.2z"/></svg><svg fill="#fff" viewBox="0 0 48 48" id="ic_dl" xmlns="http://www.w3.org/2000/svg"><path d="M24 40L8 24l2.1-2.1 12.4 12.4V8h3v26.3l12.4-12.4L40 24z"/></svg><svg fill="none" viewBox="0 0 25 5" id="ic_dots-menu" xmlns="http://www.w3.org/2000/svg"><circle r="2.5" transform="matrix(1 0 0 -1 2.5 2.5)" fill="#C4C4C4"/><circle r="2.5" transform="matrix(1 0 0 -1 12.5 2.5)" fill="#C4C4C4"/><circle r="2.5" transform="matrix(1 0 0 -1 22.5 2.5)" fill="#C4C4C4"/></svg><svg fill="none" viewBox="0 0 20 14" id="ic_eye" xmlns="http://www.w3.org/2000/svg"><path d="M1 7s3.273-6 9-6 9 6 9 6-3.273 6-9 6-9-6-9-6z" stroke="#525166" stroke-linecap="round" stroke-linejoin="round"/><path d="M10 9.25c1.356 0 2.455-1.007 2.455-2.25S11.355 4.75 10 4.75C8.644 4.75 7.546 5.757 7.546 7S8.644 9.25 10 9.25z" stroke="#525166" stroke-linecap="round" stroke-linejoin="round"/></svg><svg viewBox="0 0 9 17" id="ic_fb" xmlns="http://www.w3.org/2000/svg"><path d="M8.216 0H7.198c-2.83 0-5.134 2.015-5.134 4.492v1.896H.324c-.179 0-.324.127-.324.284v2.272c0 .156.145.284.324.284h1.74v6.956c0 .157.146.284.325.284h2.595c.18 0 .325-.127.325-.284V9.228H7.89c.179 0 .324-.128.324-.284V6.672c0-.157-.145-.284-.324-.284H5.309V4.492c0-.911.847-1.653 1.889-1.653h1.018c.18 0 .325-.127.325-.284V.284C8.54.127 8.395 0 8.216 0z"/></svg><svg viewBox="0 0 30 26" id="ic_heart" xmlns="http://www.w3.org/2000/svg"><path d="M21.494.582a8.43 8.43 0 00-6.494 3 8.316 8.316 0 00-6.494-3A8.506 8.506 0 000 9.088C0 17.138 14.05 25 14.62 25.303c.23.154.53.154.76 0C15.95 25 30 17.253 30 9.088A8.506 8.506 0 0021.494.582zM15 23.784C12.797 22.494 1.519 15.62 1.519 9.088a6.987 6.987 0 016.987-6.987 6.835 6.835 0 015.848 3.152.798.798 0 001.292 0A6.987 6.987 0 0128.48 9.088c0 6.608-11.279 13.443-13.481 14.696z"/></svg><svg viewBox="0 0 24 24" id="ic_heart-solid" xmlns="http://www.w3.org/2000/svg"><path d="M17.192 2.565h.003A6.305 6.305 0 0123.5 8.87c0 1.49-.643 3.002-1.672 4.46-1.027 1.455-2.41 2.818-3.826 4.001-2.83 2.366-5.721 3.957-5.933 4.07l-.022.012-.02.014a.047.047 0 01-.053 0l-.02-.014-.023-.012c-.21-.111-3.1-1.726-5.932-4.103-1.416-1.189-2.8-2.555-3.827-4.007C1.142 11.836.5 10.336.5 8.871a6.305 6.305 0 016.305-6.306h.006a6.153 6.153 0 014.804 2.22l.383.46.384-.458a6.244 6.244 0 014.81-2.222z"/></svg><svg viewBox="0 0 20 21" id="ic_ig" xmlns="http://www.w3.org/2000/svg"><path d="M10.004 5.295a5.122 5.122 0 00-5.13 5.13 5.122 5.122 0 005.13 5.129c2.84 0 5.13-2.29 5.13-5.13 0-2.839-2.29-5.13-5.13-5.13zm0 8.464a3.34 3.34 0 01-3.334-3.335 3.338 3.338 0 013.334-3.335 3.338 3.338 0 013.335 3.335 3.34 3.34 0 01-3.335 3.335zm6.536-8.674c0 .665-.536 1.196-1.196 1.196a1.197 1.197 0 111.196-1.196zm3.397 1.214c-.076-1.602-.442-3.022-1.616-4.192C17.151.937 15.732.572 14.13.491c-1.651-.094-6.602-.094-8.254 0-1.598.076-3.018.442-4.192 1.612C.509 3.273.147 4.693.067 6.295c-.094 1.652-.094 6.603 0 8.254.076 1.603.442 3.023 1.616 4.192 1.174 1.17 2.59 1.536 4.192 1.616 1.652.094 6.603.094 8.254 0 1.603-.076 3.023-.442 4.192-1.616 1.17-1.17 1.536-2.59 1.616-4.192.094-1.651.094-6.598 0-8.25zm-2.134 10.023a3.376 3.376 0 01-1.901 1.901c-1.317.523-4.442.402-5.898.402-1.455 0-4.584.116-5.897-.402a3.377 3.377 0 01-1.902-1.901c-.522-1.317-.401-4.442-.401-5.898 0-1.455-.117-4.585.401-5.897a3.376 3.376 0 011.902-1.902c1.317-.522 4.442-.402 5.897-.402 1.456 0 4.585-.116 5.898.402a3.376 3.376 0 011.902 1.902c.522 1.317.401 4.442.401 5.897 0 1.456.12 4.585-.401 5.898z"/></svg><svg version="1.0" viewBox="0 0 512 512" id="ic_like" xmlns="http://www.w3.org/2000/svg"><path d="M273.8 17c-17.8 3.2-30 11.5-36.8 25-6.3 12.4-8.5 24.7-10 54.5-2.1 41.5-3.6 47.8-15.2 61.2-11.7 13.7-39 31.6-63 41.3l-5.6 2.3-3.2-3.6c-1.8-2.1-4.8-4.2-6.8-4.7-2.5-.8-20.9-1-55.4-.8-50.4.3-51.7.4-54.4 2.4-1.5 1.1-3.7 3.3-4.8 4.8-2.1 2.7-2.1 2.9-2.1 144.6s0 141.9 2.1 144.6c1.1 1.5 3.3 3.7 4.8 4.8 2.7 2 4 2.1 54.4 2.4 34.5.2 52.9 0 55.4-.8 4.5-1.3 9.5-6.8 10.4-11.5l.6-3.5 136.7-.2 136.6-.3 5.5-2.6c7.4-3.5 13.4-9.8 17.5-18.3 2.6-5.3 9.9-31.3 28.5-101.1 22.3-83.8 25-94.8 25-101.6 0-22.7-15.7-42.1-37.8-46.8-3.5-.7-22.4-1.1-55.4-1.1h-50l.6-2.3c1.3-5.3 4.7-28.2 6.2-42.7 2.5-22.5 2.5-63.4.1-75.4-7.5-36.7-24-59.7-48.8-68.2-5.8-2-9.9-2.6-18.9-2.9-6.3-.2-13.6 0-16.2.5zm27.7 34c13.4 6.5 22.5 24 25.7 49.7 1.8 15-.3 57.4-4.3 83.8-2.3 15.4-4 21.8-8.1 30.3-4.6 9.7-3.2 16.8 4.6 22.6 2.7 2.1 4.1 2.1 67.6 2.6 63.8.5 64.9.5 67.7 2.6 4.5 3.4 7.3 8.2 7.3 12.8 0 4.9-48.4 187-50.6 190.3L410 448H144V235.5l8.8-3.4c21.2-8.3 47-22.3 62.1-33.9 19.8-15 33.8-33.5 39.2-51.7 1.7-5.6 3.8-26.9 4.9-48.5 1.3-25.3 2.3-32.7 5.5-39.7 3.6-7.9 9.4-10.4 23.5-10 6.6.2 9.7.8 13.5 2.7zM112 344v120H48V224h64v120z"/></svg><svg fill="none" viewBox="0 0 18 14" id="ic_mail" xmlns="http://www.w3.org/2000/svg"><path d="M2.6 1h12.8c.88 0 1.6.675 1.6 1.5v9c0 .825-.72 1.5-1.6 1.5H2.6c-.88 0-1.6-.675-1.6-1.5v-9C1 1.675 1.72 1 2.6 1z" stroke="#525166" stroke-linecap="round" stroke-linejoin="round"/><path d="M17 2.714L9 7 1 2.714" stroke="#525166" stroke-linecap="round" stroke-linejoin="round"/></svg><svg fill="none" viewBox="0 0 15 12" id="ic_ok" xmlns="http://www.w3.org/2000/svg"><path d="M3.567 10.299L13.549.317l1.414 1.414-9.982 9.982-1.414-1.414z" fill="#4AC635"/><path d="M1.51 5.434l4.43 4.432-1.413 1.414L.096 6.849 1.51 5.434z" fill="#4AC635"/></svg><svg fill="none" viewBox="0 0 18 13" id="ic_ok-dark" xmlns="http://www.w3.org/2000/svg"><path d="M17 1L6 12 1 7" stroke="#92919F" stroke-width="2" stroke-linecap="round" stroke-linejoin="round"/></svg><svg fill="none" viewBox="0 0 56 56" id="ic_ok-large" xmlns="http://www.w3.org/2000/svg"><path d="M54.665 25.547V28A26.667 26.667 0 1138.852 3.627" stroke="#2FA81A" stroke-width="2" stroke-linecap="round" stroke-linejoin="round"/><path d="M54.667 6.667L28 33.36l-8-8" stroke="#2FA81A" stroke-width="2" stroke-linecap="round" stroke-linejoin="round"/></svg><svg fill="none" viewBox="0 0 17 24" id="ic_paly-min" xmlns="http://www.w3.org/2000/svg"><path d="M14.283 8.57c2.59 1.554 2.59 5.306 0 6.86L0 24V0l14.283 8.57z" fill="#525166"/></svg><svg viewBox="0 0 24 24" id="ic_phone" xmlns="http://www.w3.org/2000/svg"><g clip-path="url(#beclip0)"><path d="M4.89 15.954c2.368 2.83 5.217 5.057 8.47 6.634 1.238.586 2.894 1.283 4.739 1.402.114.005.224.01.338.01 1.238 0 2.233-.428 3.044-1.308a.108.108 0 00.02-.025c.288-.348.616-.661.96-.994.233-.224.472-.458.7-.697 1.06-1.104 1.06-2.506-.01-3.575l-2.988-2.99c-.508-.526-1.114-.805-1.75-.805-.637 0-1.249.279-1.771.801l-1.78 1.78c-.165-.094-.334-.179-.493-.258a6.118 6.118 0 01-.547-.299c-1.621-1.03-3.093-2.372-4.5-4.098-.712-.9-1.19-1.655-1.522-2.426.467-.423.905-.866 1.328-1.298.149-.154.303-.309.457-.463.537-.537.826-1.159.826-1.79 0-.632-.284-1.253-.826-1.79L8.103 2.283c-.174-.174-.338-.344-.507-.518a27.27 27.27 0 00-1.01-1C6.074.265 5.472 0 4.836 0c-.632 0-1.239.264-1.77.77l-1.86 1.86a3.821 3.821 0 00-1.14 2.447c-.094 1.19.125 2.452.692 3.979.87 2.362 2.183 4.555 4.132 6.898zM1.28 5.182a2.63 2.63 0 01.79-1.69l1.85-1.85c.29-.28.607-.424.916-.424.303 0 .611.145.895.433.333.308.646.632.985.975.169.174.343.348.517.527l1.482 1.482c.308.308.467.622.467.93 0 .308-.159.621-.467.93l-.463.467c-.462.468-.895.91-1.372 1.333l-.025.025c-.413.413-.348.806-.249 1.104l.015.04c.383.92.915 1.795 1.746 2.84 1.492 1.84 3.063 3.267 4.794 4.366.213.139.442.248.656.358.199.1.383.194.547.298l.055.03c.164.084.323.124.482.124.398 0 .657-.253.741-.338l1.86-1.86c.289-.288.602-.442.91-.442.378 0 .687.233.88.442l3 2.994c.596.597.591 1.243-.016 1.875-.209.224-.427.438-.661.661-.348.338-.711.687-1.04 1.08-.571.616-1.253.905-2.133.905-.084 0-.174-.006-.259-.01-1.63-.105-3.147-.741-4.286-1.284-3.094-1.496-5.809-3.62-8.062-6.315-1.855-2.233-3.103-4.312-3.928-6.54-.513-1.367-.707-2.466-.627-3.466z"/></g><defs><clipPath id="beclip0"><path d="M0 0h24v24H0z"/></clipPath></defs></svg><svg fill="none" viewBox="0 0 17 24" id="ic_pin" xmlns="http://www.w3.org/2000/svg"><g clip-path="url(#bfclip0_722_6)"><path d="M8.88.858C4.405.858.763 4.5.763 8.976c0 5.556 7.426 13.712 7.735 14.057.29.323.273.323.563 0 .31-.345 7.94-8.5 7.94-14.057C17 4.5 13.358.858 8.88.858z" fill="#48A216"/><path d="M9 14A5 5 0 109 4a5 5 0 000 10z" fill="#fff"/><path d="M9 11a2 2 0 100-4 2 2 0 000 4z" fill="#48A216"/></g><defs><clipPath id="bfclip0_722_6"><path fill="#fff" d="M0 0h17v24H0z"/></clipPath></defs></svg><svg fill="none" viewBox="0 0 77 77" id="ic_play" xmlns="http://www.w3.org/2000/svg"><circle cx="38.5" cy="38.5" r="38.5" fill="#F4B43F"/><path d="M48.293 36.498a2 2 0 010 3.004l-10.722 9.433c-1.292 1.136-3.321.219-3.321-1.502V28.567c0-1.72 2.029-2.638 3.321-1.502l10.722 9.433z" fill="#fff"/></svg><svg fill="#525166" viewBox="0 0 17 17" id="ic_search" xmlns="http://www.w3.org/2000/svg"><path d="M16.805 15.866L12.01 11.07c2.185-2.659 2.037-6.606-.446-9.089a6.783 6.783 0 00-9.582 0 6.783 6.783 0 000 9.582c2.483 2.482 6.429 2.632 9.089.446l4.796 4.796a.664.664 0 00.94-.939zm-6.182-5.243a5.453 5.453 0 01-7.702 0 5.453 5.453 0 010-7.703 5.453 5.453 0 017.702 0 5.453 5.453 0 010 7.703z"/></svg><svg fill="none" viewBox="0 0 8 14" id="ic_season-back" xmlns="http://www.w3.org/2000/svg"><path d="M7 1L1 7l6 6" stroke="#ABA9BC" stroke-width="2" stroke-linecap="round" stroke-linejoin="round"/></svg><svg fill="none" viewBox="0 0 8 14" id="ic_season-next" xmlns="http://www.w3.org/2000/svg"><path d="M1 13l6-6-6-6" stroke="#ABA9BC" stroke-width="2" stroke-linecap="round" stroke-linejoin="round"/></svg><svg fill="none" viewBox="0 0 9 6" id="ic_select" xmlns="http://www.w3.org/2000/svg"><path d="M1 1l3.5 3L8 1" stroke="#000" stroke-width="2"/></svg><svg fill="none" viewBox="0 0 7 6" id="ic_select-currency" xmlns="http://www.w3.org/2000/svg"><path d="M3.5 6L6.531.75H.47L3.5 6z" fill="#fff"/></svg><svg fill="none" viewBox="0 0 24 24" id="ic_send" xmlns="http://www.w3.org/2000/svg"><path d="M22 2L11 13M22 2l-7 20-4-9-9-4 20-7z" stroke="#BCBCBC" stroke-width="2" stroke-linecap="round" stroke-linejoin="round"/></svg><svg fill="none" viewBox="0 0 18 14" id="ic_sort" xmlns="http://www.w3.org/2000/svg"><path d="M17 1H1m16 6H5m12 6H9" stroke="#525166" stroke-width="2" stroke-linecap="round" stroke-linejoin="round"/></svg><svg fill="none" viewBox="0 0 18 17" id="ic_star" xmlns="http://www.w3.org/2000/svg"><path d="M9 .902l2.472 5.008L17 6.718l-4 3.896.944 5.504L9 13.518l-4.944 2.6L5 10.614 1 6.718l5.528-.808L9 .902z" stroke="#525166" stroke-linecap="round" stroke-linejoin="round"/></svg><svg fill="none" viewBox="0 0 14 14" id="ic_star-solid" xmlns="http://www.w3.org/2000/svg"><path d="M6.104.814a1 1 0 011.793 0l1.31 2.652a1 1 0 00.752.547l2.931.428a1 1 0 01.553 1.706l-2.118 2.06a1 1 0 00-.288.886l.5 2.91a1 1 0 01-1.45 1.055l-2.622-1.377a1 1 0 00-.93 0l-2.62 1.377a1 1 0 01-1.452-1.055l.5-2.91a1 1 0 00-.288-.886L.557 6.147A1 1 0 011.11 4.44l2.931-.428a1 1 0 00.752-.547L6.103.814z" fill="#111"/></svg><svg fill="none" viewBox="0 0 18 36" id="ic_swiper-next" xmlns="http://www.w3.org/2000/svg"><path d="M1 35l15-17L1 1" stroke="#000" stroke-width="2"/></svg><svg fill="none" viewBox="0 0 18 36" id="ic_swiper-prev" xmlns="http://www.w3.org/2000/svg"><path d="M17 35L2 18 17 1" stroke="#000" stroke-width="2"/></svg><svg viewBox="0 0 16 14" id="ic_tg" xmlns="http://www.w3.org/2000/svg"><path d="M6.279 9.096l-.265 3.723c.379 0 .543-.163.74-.358l1.775-1.697 3.679 2.695c.674.376 1.15.178 1.332-.621l2.415-11.316c.214-.997-.36-1.388-1.018-1.143L.743 5.813c-.969.376-.954.916-.165 1.161l3.629 1.129 8.43-5.274c.396-.263.757-.118.46.145L6.279 9.096z"/></svg><svg viewBox="0 0 16 13" id="ic_tw" xmlns="http://www.w3.org/2000/svg"><path d="M16 1.543a6.872 6.872 0 01-1.645 1.696 9.368 9.368 0 01-.376 3.066 9.453 9.453 0 01-1.177 2.517 9.91 9.91 0 01-1.868 2.143c-.724.615-1.597 1.11-2.62 1.482a9.666 9.666 0 01-3.278.548A9.106 9.106 0 010 11.523c.237.027.5.04.792.04a6.42 6.42 0 004.07-1.4 3.214 3.214 0 01-1.908-.65 3.235 3.235 0 01-1.157-1.625c.223.034.43.051.62.051.29 0 .578-.037.862-.112a3.259 3.259 0 01-1.888-1.126A3.201 3.201 0 01.65 4.609v-.04c.46.257.954.395 1.482.416a3.275 3.275 0 01-1.066-1.168A3.195 3.195 0 01.67 2.254c0-.596.149-1.147.447-1.655a9.373 9.373 0 002.985 2.426A9.22 9.22 0 007.878 4.03a3.643 3.643 0 01-.081-.75c0-.908.318-1.68.954-2.316A3.169 3.169 0 0111.076 0c.948 0 1.746.345 2.396 1.036a6.43 6.43 0 002.081-.792 3.184 3.184 0 01-1.441 1.807A6.534 6.534 0 0016 1.543z"/></svg>

 
<svg id="ic_user" viewBox="0 0 256 256" xmlns="http://www.w3.org/2000/svg">
  <path d="M235.39893,209.9834A124.42854,124.42854,0,0,0,173.59937,156.759a76,76,0,1,0-91.19874,0A124.43041,124.43041,0,0,0,20.60254,209.981,12.00005,12.00005,0,0,0,41.376,222.00049a100.03726,100.03726,0,0,1,173.24951.00146,11.99981,11.99981,0,0,0,20.77344-12.01855ZM76,96a52,52,0,1,1,52,52A52.059,52.059,0,0,1,76,96Z"/>
</svg>

 

<svg fill="none" viewBox="0 0 16 16" id="ic_user-dark" xmlns="http://www.w3.org/2000/svg"><path d="M13.99 14.587c.094.776-.544 1.413-1.317 1.413H1.327C.554 16-.084 15.363.01 14.587.536 10.216 3.465 7.87 7 7.87s6.464 2.346 6.99 6.717zM10.343 3.384c0 1.87-1.497 3.385-3.343 3.385-1.846 0-3.343-1.516-3.343-3.385C3.657 1.515 5.154 0 7 0c1.846 0 3.343 1.515 3.343 3.384z" fill="#92919F"/></svg><svg fill="none" viewBox="0 0 36 36" id="ic_user-default" xmlns="http://www.w3.org/2000/svg"><path d="M24.99 24.587c.094.776-.544 1.413-1.317 1.413H12.327c-.773 0-1.411-.637-1.318-1.413.527-4.371 3.456-6.717 6.991-6.717 3.535 0 6.464 2.346 6.99 6.717zm-3.647-11.203c0 1.87-1.497 3.384-3.343 3.384-1.846 0-3.343-1.515-3.343-3.384S16.154 10 18 10c1.846 0 3.343 1.515 3.343 3.384z" fill="#92919F"/></svg><svg viewBox="0 0 20 20" id="ic_vb" xmlns="http://www.w3.org/2000/svg"><path d="M17.745 1.948c-.524-.457-2.64-1.914-7.36-1.934 0 0-5.565-.316-8.276 2.043C.602 3.487.07 5.584.013 8.18c-.058 2.597-.128 7.464 4.819 8.784h.004l-.004 2.015s-.033.817.535.98c.684.204 1.088-.417 1.743-1.085.358-.367.852-.906 1.227-1.316 3.386.27 5.985-.348 6.281-.438.684-.21 4.552-.68 5.178-5.546.65-5.023-.313-8.194-2.051-9.627zm.572 9.26c-.531 4.062-3.666 4.32-4.242 4.496-.247.074-2.534.613-5.404.437 0 0-2.142 2.449-2.81 3.086-.218.207-.457.187-.452-.223 0-.27.016-3.347.016-3.347-.004 0-.004 0 0 0-4.193-1.102-3.946-5.246-3.9-7.413.045-2.168.477-3.945 1.754-5.14 2.294-1.973 7.019-1.68 7.019-1.68 3.99.016 5.902 1.156 6.347 1.539 1.47 1.195 2.22 4.054 1.672 8.245zm-5.725-3.156c.016.336-.515.36-.532.024-.045-.86-.469-1.278-1.342-1.324-.354-.02-.322-.524.029-.504 1.149.058 1.787.683 1.845 1.804zm.836.442c.041-1.656-1.05-2.953-3.122-3.098-.35-.023-.313-.527.037-.504 2.389.164 3.662 1.723 3.616 3.613-.004.336-.54.32-.531-.011zm1.936.523c.004.336-.532.34-.532.004-.024-3.183-2.26-4.918-4.975-4.937-.35-.004-.35-.504 0-.504 3.036.02 5.478 2.008 5.507 5.437zm-.466 3.832v.007c-.444.742-1.276 1.563-2.133 1.3l-.008-.01c-.87-.231-2.917-1.231-4.21-2.208-.667-.5-1.277-1.09-1.746-1.656a12.643 12.643 0 01-1.269-1.82c-.877-1.503-1.07-2.175-1.07-2.175-.277-.813.584-1.602 1.37-2.023h.009c.379-.188.741-.125.984.152 0 0 .511.578.73.863.205.266.481.691.626.93.25.425.094.859-.153 1.039l-.494.375c-.251.19-.218.546-.218.546s.733 2.629 3.472 3.293c0 0 .375.031.576-.207l.396-.469c.19-.234.646-.383 1.095-.144.606.324 1.376.828 1.887 1.285.288.222.354.562.156.921z"/></svg><svg viewBox="0 0 19 11" id="ic_vk" xmlns="http://www.w3.org/2000/svg"><path d="M17.57 8.059c-.393-.414-.84-.785-1.27-1.143-.154-.128-.313-.26-.466-.39-.438-.377-.454-.519-.107-.947.24-.295.495-.59.742-.876.224-.26.455-.527.677-.796l.045-.055c.424-.515.862-1.047 1.095-1.689.06-.17.124-.418-.021-.627-.145-.208-.427-.272-.627-.301a1.946 1.946 0 00-.287-.017l-2.774-.002h-.023c-.42 0-.702.174-.864.53a13.74 13.74 0 01-.519 1.05c-.385.688-.875 1.48-1.584 2.141l-.03.028c-.084.08-.179.169-.248.169a.133.133 0 01-.035-.006c-.147-.05-.246-.362-.241-.507v-.006L11.03 1.8l-.003-.03c-.07-.457-.226-.742-.817-.843a.278.278 0 00-.048-.004H7.278c-.47 0-.729.168-.972.419-.066.067-.202.206-.135.376.07.172.292.208.365.22.361.06.564.254.622.593.1.588.113 1.216.039 1.975a1.49 1.49 0 01-.129.514c-.015.032-.07.138-.127.138-.018 0-.07-.006-.165-.063-.224-.135-.387-.327-.578-.564A12.863 12.863 0 014.53 1.817a.986.986 0 00-.92-.592c-.46-.006-.878-.01-1.276-.01-.435 0-.839.004-1.232.012-.337.005-.57.093-.693.263s-.115.394.024.664C1.544 4.32 2.55 5.896 3.697 7.261c.804.956 1.61 1.618 2.536 2.082.977.49 2.071.729 3.345.729.145 0 .294-.003.445-.01.74-.031 1.015-.266 1.05-.9.016-.323.057-.662.238-.951.114-.183.22-.183.256-.183.067 0 .151.028.241.079.161.092.3.216.413.324l.317.31c.228.224.464.456.71.675.538.481 1.132.693 1.813.647h2.56a.755.755 0 00.602-.34c.16-.248.157-.564-.008-.847a4.587 4.587 0 00-.645-.817z"/></svg><svg viewBox="0 0 16 17" id="ic_wa" xmlns="http://www.w3.org/2000/svg"><path d="M9.719 9.385c.27-.34.451-.51.541-.51.09 0 .428.153 1.01.458.591.306.904.49.938.552.014.035.021.087.021.157 0 .229-.059.493-.177.791-.111.271-.358.5-.74.688-.381.18-.736.27-1.062.27-.396 0-1.056-.215-1.98-.645a5.945 5.945 0 01-1.77-1.23C6 9.41 5.486 8.768 4.958 7.99c-.5-.743-.746-1.417-.74-2.021v-.084c.022-.632.279-1.18.772-1.645a.788.788 0 01.541-.23c.042 0 .104.007.188.021.083.007.15.01.198.01.132 0 .222.025.27.074.056.041.112.135.167.28.056.14.17.445.344.918.174.472.26.732.26.78 0 .147-.121.348-.364.605-.236.25-.354.41-.354.48 0 .048.017.1.052.155.236.507.59.983 1.062 1.427.39.368.913.72 1.573 1.053.083.048.16.072.23.072.103 0 .29-.166.562-.5zm-1.573 5.01a6.33 6.33 0 002.531-.52 6.581 6.581 0 002.094-1.396 6.613 6.613 0 001.396-2.083c.347-.813.52-1.66.52-2.542a6.33 6.33 0 00-.52-2.531 6.582 6.582 0 00-1.396-2.094 6.581 6.581 0 00-2.094-1.396 6.329 6.329 0 00-2.531-.52c-.882 0-1.73.173-2.542.52-.805.348-1.5.813-2.083 1.396a6.582 6.582 0 00-1.396 2.094 6.329 6.329 0 00-.52 2.531c0 1.41.416 2.688 1.25 3.833l-.824 2.428 2.521-.803a6.406 6.406 0 003.594 1.084zM5.094.626A7.669 7.669 0 018.146 0c1.062 0 2.076.208 3.041.625a7.918 7.918 0 012.51 1.677 7.918 7.918 0 011.678 2.51c.417.966.625 1.98.625 3.042 0 1.063-.208 2.08-.625 3.052a7.947 7.947 0 01-1.677 2.5 7.916 7.916 0 01-2.51 1.677 7.594 7.594 0 01-3.042.625 7.735 7.735 0 01-3.802-.979L0 16.125l1.417-4.219A7.666 7.666 0 01.292 7.854c0-1.062.208-2.076.625-3.042a7.917 7.917 0 011.677-2.51 7.948 7.948 0 012.5-1.677z"/></svg></svg>